<svg width="32" height="37" viewBox="0 0 32 37" fill="none" xmlns="http://www.w3.org/2000/svg">
<path d="M3.58707 16.0241C5.62791 12.9851 7.73131 9.52802 10.6907 6.90308M3.58707 16.0241C6.55068 -1.07685 14.6648 0.803161 21.6034 6.95764M3.58707 16.0241C0.874681 31.6755 7.98736 25.5893 16.1675 14.6587M10.6907 6.90308C17.6292 0.748604 25.7434 -1.13141 28.707 15.9696M10.6907 6.90308C12.5062 9.60452 14.3632 12.2502 16.1675 14.6587M28.707 15.9696C26.6662 12.9305 24.5628 9.58258 21.6034 6.95764M28.707 15.9696C31.4149 31.5949 24.3304 25.5549 16.1675 14.6587M21.6034 6.95764C19.8016 9.6387 17.9589 12.2649 16.1675 14.6587M16.1675 14.6587V36" stroke="url(#paint0_linear_52_2)" stroke-width="3.5"/>
<defs>
<linearGradient id="paint0_linear_52_2" x1="16.147" y1="37.1964" x2="16.147" y2="1.30357" gradientUnits="userSpaceOnUse">
<stop stop-color="#FD8A09"/>
<stop offset="0.5" stop-color="#FB5607"/>
<stop offset="1" stop-color="#DE395A"/>
</linearGradient>
</defs>
</svg>
